<?xml version="1.0" encoding="utf-8"?>
<!-- Generator: Adobe Illustrator 21.0.0, SVG Export Plug-In . SVG Version: 6.00 Build 0)  -->
<svg version="1.1" id="Layer_1" xmlns="http://www.w3.org/2000/svg" xmlns:xlink="http://www.w3.org/1999/xlink" x="0px" y="0px"
viewBox="0 18 72 66" style="enable-background:new 0 0 100 100;" xml:space="preserve">
<style type="text/css">
.st2{fill:#F2F2F2;}
.st4{fill:#5D6D7E;}
.st5{opacity:0.45;}
.st6{fill:#606060;}
.st7{opacity:0.18;fill:#303030;enable-background:new;}
.st8{fill:#F44336;}
.st9{fill:#FFC107;}
</style>
<g>
<ellipse class="st7" cx="33.4" cy="53.9" rx="31.8" ry="31.1"/>
<g>
<ellipse class="st8" cx="33" cy="53.3" rx="30.9" ry="30.3"/>
<ellipse class="st9" cx="33" cy="53.3" rx="19.9" ry="19.6"/>
<ellipse class="st2" cx="33" cy="53.3" rx="11.2" ry="11"/>
<g>
<g>
<g>
<polygon class="st8" points="57.4,21.7 58.7,29 60.6,28.7 59.3,21.4 					"/>
<polygon class="st8" points="59.8,19.2 61.1,26.6 63,26.3 61.7,18.9 					"/>
<polygon class="st8" points="62.3,16.8 63.5,24.2 65.4,23.9 64.1,16.5 					"/>
</g>
<g>
<polygon class="st8" points="63.9,22.6 71.6,23.6 71.3,25.3 63.6,24.3 					"/>
<polygon class="st8" points="61.4,25 69.2,25.9 69,27.7 61.2,26.8 					"/>
<polygon class="st8" points="59,27.4 66.7,28.3 66.5,30.1 58.7,29.2 					"/>
</g>
</g>
<g>
<polygon class="st4" points="66.4,20.5 33.5,52 34.5,53 67.4,21.4 				"/>
<path class="st4" d="M37.9,47.8l-5.8,5.6c-0.1,0.1-0.1,0.3,0,0.4l0.6,0.5c0.1,0.1,0.3,0.1,0.5,0l5.8-5.6c0.1-0.1,0.1-0.3,0-0.4
l-0.6-0.5C38.2,47.6,38,47.6,37.9,47.8z"/>
</g>
</g>
<g class="st5">
<polygon class="st6" points="54.3,75.2 34.2,53.7 32.8,54.9 53,76.5 			"/>
<path class="st6" d="M36.7,56.3l-3.3-3.5c-0.2-0.2-0.4-0.2-0.6,0L32,53.6c-0.2,0.1-0.2,0.4,0,0.6l3.3,3.5c0.2,0.2,0.4,0.2,0.6,0
l0.8-0.7C36.9,56.7,36.9,56.5,36.7,56.3z"/>
</g>
</g>
</g>
</svg>
